<svg width="24" height="24" viewBox="0 0 24 24" fill="none" xmlns="http://www.w3.org/2000/svg">
<path fill-rule="evenodd" clip-rule="evenodd" d="M0 12C0 11.5156 0 11.2734 0.00731364 11.0686C0.222236 5.05088 5.05088 0.222236 11.0686 0.00731364C11.2734 0 11.5156 0 12 0C12.4844 0 12.7266 0 12.9314 0.00731364C18.9491 0.222236 23.7778 5.05088 23.9927 11.0686C24 11.2734 24 11.5156 24 12C24 12.4844 24 12.7266 23.9927 12.9314C23.7778 18.9491 18.9491 23.7778 12.9314 23.9927C12.7266 24 12.4844 24 12 24C11.5156 24 11.2734 24 11.0686 23.9927C5.05088 23.7778 0.222236 18.9491 0.00731364 12.9314C0 12.7266 0 12.4844 0 12ZM7.18775 17.4548H4.94421V10.524H7.18775V17.4548ZM4.67432 7.89896C4.67432 7.5294 4.80927 7.21418 5.07916 6.95331C5.34906 6.68157 5.67519 6.5457 6.05755 6.5457C6.4399 6.5457 6.76603 6.67614 7.03593 6.937C7.30583 7.19787 7.44078 7.51853 7.44078 7.89896C7.44078 8.25766 7.30583 8.56744 7.03593 8.82831C6.76603 9.08918 6.4399 9.21961 6.05755 9.21961C5.67519 9.21961 5.34906 9.08918 5.07916 8.82831C4.80927 8.56744 4.67432 8.25766 4.67432 7.89896ZM14.1607 15.4853H12.3726V8.51518H14.177C15.1739 8.51518 15.9975 8.81779 16.6478 9.42299C17.298 10.0179 17.6231 10.8796 17.6231 12.0079C17.6231 13.1363 17.298 13.9979 16.6478 14.5929C15.9975 15.1878 15.1685 15.4853 14.1607 15.4853ZM10.1294 17.4548H14.242C15.9217 17.4548 17.2925 16.9675 18.3546 15.9931C19.4166 15.0186 19.9476 13.6902 19.9476 12.0079C19.9476 10.3154 19.4166 8.98191 18.3546 8.00743C17.3034 7.03294 15.9379 6.5457 14.2582 6.5457H10.1294V17.4548Z" fill="white"/>
</svg>
